<?xml version="1.0" standalone="no"?>
<!DOCTYPE svg PUBLIC "-//W3C//DTD SVG 20010904//EN"
 "http://www.w3.org/TR/2001/REC-SVG-20010904/DTD/svg10.dtd">
<svg version="1.0" xmlns="http://www.w3.org/2000/svg"
 width="1134.000000pt" height="414.000000pt" viewBox="0 0 1134.000000 414.000000"
 preserveAspectRatio="xMidYMid meet">

<g transform="translate(0.000000,414.000000) scale(0.100000,-0.100000)"
fill="#000000" stroke="none">
<path d="M6500 4133 c-28 -10 -59 -45 -65 -74 -7 -29 -7 -29 -81 -29 l-74 0 0
45 0 45 -90 0 -90 0 0 -35 0 -35 -85 0 -85 0 0 -73 c0 -88 -21 -165 -57 -207
-48 -58 -164 -100 -273 -100 l-50 0 0 -87 0 -86 93 6 c151 11 249 45 328 115
50 44 103 134 116 197 6 32 9 11 13 -95 4 -115 8 -139 25 -162 42 -56 54 -58
294 -58 l221 0 0 80 0 80 -180 0 -181 0 3 93 3 92 168 3 167 2 0 -50 0 -50
283 2 282 3 3 83 3 82 134 0 c101 0 135 -3 135 -12 0 -33 -52 -118 -97 -160
-63 -58 -121 -88 -173 -88 l-40 0 0 -81 0 -81 83 3 c68 3 94 9 147 36 36 17
80 48 99 67 l34 35 28 -39 c31 -42 81 -80 142 -105 l37 -15 0 87 0 88 -33 21
c-18 12 -45 39 -60 61 -27 39 -27 40 -11 79 11 25 18 80 22 152 l5 112 -227 0
-226 0 0 -70 0 -70 -269 0 -268 0 -5 63 c-3 35 -13 75 -22 89 -26 40 -81 57
-126 41z m68 -59 c24 -17 30 -62 10 -82 -38 -38 -108 9 -89 61 15 38 44 46 79
21z"/>
<path d="M4980 3970 l0 -150 85 0 85 0 0 65 0 65 100 0 100 0 0 -33 c0 -50
-25 -123 -55 -163 -38 -50 -94 -75 -202 -87 l-93 -11 0 -85 0 -84 88 6 c253
18 406 149 428 366 11 112 -9 101 184 101 l170 0 0 80 0 80 -445 0 -445 0 0
-150z"/>
<path d="M7890 3907 c-68 -24 -101 -118 -65 -187 33 -64 -92 -60 1753 -60
l1679 0 27 21 c80 63 71 180 -18 220 -39 18 -106 19 -1691 18 -1252 0 -1658
-3 -1685 -12z"/>
<path d="M510 3893 c-14 -9 -27 -20 -30 -24 -3 -4 -37 -8 -76 -11 -59 -3 -78
-8 -108 -31 -42 -32 -64 -72 -74 -129 -7 -38 -10 -42 -53 -52 -114 -29 -176
-133 -148 -248 17 -72 74 -133 145 -154 48 -14 59 -14 119 1 37 10 67 15 68
14 2 -2 65 -68 140 -145 l138 -142 -56 -82 c-114 -167 -196 -362 -230 -546 -9
-49 -18 -99 -21 -110 -2 -15 -34 -39 -95 -75 l-92 -54 59 -12 c32 -7 73 -16
89 -21 l30 -8 7 -104 c16 -250 101 -498 242 -707 l48 -73 -138 -143 -139 -144
-39 13 c-49 18 -127 18 -169 1 -18 -8 -49 -32 -69 -55 -108 -120 -55 -303 101
-343 47 -12 51 -15 51 -43 0 -83 76 -159 173 -172 27 -4 47 -12 47 -19 0 -14
44 -25 96 -25 l34 0 0 -54 0 -54 38 9 c20 5 40 9 43 9 4 0 9 -14 13 -32 3 -18
11 -50 17 -72 l11 -41 23 27 c20 23 24 25 38 11 12 -12 22 -13 44 -6 l28 10
-3 99 -3 99 81 87 82 88 747 0 747 0 108 -65 c183 -110 327 -155 497 -155 159
0 275 38 501 166 l96 54 582 0 582 0 57 -34 c184 -111 320 -157 481 -163 176
-7 283 25 484 146 l84 51 386 0 387 0 77 -54 c160 -111 285 -157 432 -158 149
-1 267 37 465 152 l105 60 423 0 424 0 116 -89 c266 -203 438 -290 646 -326
107 -19 186 -19 297 0 236 41 509 174 723 353 l73 62 380 0 c319 0 384 2 408
15 32 17 60 61 60 95 0 34 -28 78 -60 95 -23 12 -72 15 -246 15 -120 0 -215 2
-213 4 2 3 87 28 189 56 102 28 209 58 239 67 l53 15 -167 162 c-92 88 -171
162 -175 164 -4 1 -10 -29 -14 -68 l-7 -70 -30 16 c-17 8 -32 21 -35 27 -2 7
7 41 21 77 14 35 35 98 46 139 15 53 30 83 50 102 16 15 29 36 29 47 0 16 9
21 51 26 120 16 193 63 219 141 l12 36 -128 131 c-115 118 -126 133 -109 142
43 25 95 80 116 124 20 41 23 62 24 162 0 99 -3 122 -23 165 -63 136 -197 189
-321 125 -45 -23 -108 -90 -127 -136 -9 -23 -21 -34 -34 -34 -18 0 -20 7 -20
76 0 70 -2 78 -29 105 -31 31 -64 36 -104 18 -36 -16 -48 -45 -54 -125 l-6
-74 -119 0 -119 0 6 38 c50 295 209 565 450 762 74 60 233 170 246 170 5 0 9
-32 11 -72 l3 -72 158 174 c133 147 155 176 140 182 -10 4 -119 35 -243 68
-124 33 -234 63 -245 67 -13 4 0 -17 39 -61 32 -37 55 -71 50 -75 -5 -4 -45
-20 -89 -35 -183 -64 -401 -202 -526 -332 -131 -139 -248 -332 -308 -508 l-29
-87 -4 273 c-4 250 -6 278 -27 336 -60 173 -197 286 -394 328 -291 61 -574
-82 -663 -335 l-24 -66 0 213 0 212 -612 0 -613 0 58 -53 c45 -41 61 -63 73
-102 52 -173 67 -518 61 -1400 -4 -714 -7 -768 -57 -928 -15 -50 -32 -79 -61
-108 -38 -38 -48 -69 -31 -96 5 -8 46 -13 124 -15 l117 -3 -80 -47 -79 -48
-410 0 -410 0 -76 60 c-142 113 -298 168 -444 156 -41 -3 -85 -9 -98 -12 -19
-5 -25 0 -38 31 -29 69 -45 198 -51 396 l-6 196 24 6 c13 4 38 7 55 7 53 0
217 46 285 80 123 62 193 138 224 242 14 50 16 125 13 650 -3 574 -4 595 -24
648 -58 151 -128 237 -237 289 -91 44 -160 51 -483 51 l-292 0 -6 -35 c-4 -21
-1 -55 8 -86 35 -117 41 -257 41 -1009 0 -738 -6 -906 -41 -1229 -19 -183 -25
-201 -89 -270 -30 -32 -55 -61 -55 -65 0 -3 96 -6 213 -7 202 0 211 -1 188
-17 -14 -9 -43 -32 -64 -49 l-39 -33 -469 0 -468 0 -66 47 -65 48 307 5 308 5
3 308 c1 169 -1 307 -5 307 -5 0 -28 -28 -51 -60 -53 -72 -108 -112 -187 -135
-62 -18 -146 -16 -217 5 -60 17 -130 71 -163 124 l-30 49 0 351 0 351 43 3
c99 7 217 -58 284 -156 32 -46 34 -48 66 -40 l32 9 -2 281 -3 282 -33 7 c-30
6 -35 3 -67 -41 -59 -81 -172 -144 -292 -165 l-42 -7 5 314 c4 220 10 328 19
363 19 67 72 127 143 162 77 38 200 40 278 5 63 -29 119 -84 137 -137 12 -36
18 -40 50 -43 l37 -3 0 280 0 281 -831 0 -832 0 7 -47 c3 -27 9 -91 12 -144 7
-106 -4 -267 -16 -234 -15 41 -32 168 -38 292 l-7 128 -92 3 -93 3 0 40 c0 52
-20 97 -60 137 l-34 32 675 0 c651 0 675 1 706 20 74 45 83 139 19 197 l-36
33 -2143 0 c-1996 0 -2144 -1 -2167 -17z m2708 -93 c40 -25 52 -54 52 -129 l0
-59 65 -4 c78 -5 114 -27 134 -85 26 -72 24 -73 -169 -73 -93 0 -170 -4 -170
-8 0 -5 13 -21 30 -37 l29 -28 -161 -169 c-88 -93 -164 -167 -168 -166 -4 2
-38 32 -76 67 l-68 64 182 179 183 180 -31 60 c-37 75 -40 133 -8 173 42 54
119 69 176 35z m-2738 -32 c80 -41 89 -126 25 -228 l-24 -39 171 -166 172
-166 -69 -69 -70 -70 -165 163 -165 163 -39 -19 c-57 -29 -124 -33 -162 -9
-60 38 -81 128 -44 190 25 41 73 62 139 62 l50 0 -2 64 c-2 52 2 70 19 93 42
57 93 66 164 31z m2484 -170 l23 -56 -166 -160 -166 -159 -65 44 c-148 101
-348 185 -533 225 -139 29 -396 32 -542 4 -196 -37 -386 -113 -544 -219 -46
-32 -87 -57 -90 -57 -4 0 -73 67 -154 148 l-148 148 20 45 c11 24 21 56 21 72
l0 27 1161 -2 1160 -3 23 -57z m1380 -288 c52 -131 65 -378 67 -1260 2 -722
-2 -840 -36 -1003 -16 -75 -58 -177 -74 -177 -14 0 -19 39 -31 235 -38 628
-29 1547 20 2060 14 140 21 185 30 185 4 0 15 -18 24 -40z m-1083 -70 c10 -63
29 -648 29 -873 l0 -187 -32 13 c-31 13 -33 16 -50 118 -36 199 -125 415 -242
584 l-55 80 27 30 c14 16 83 88 152 158 141 144 160 153 171 77z m5325 -175
c61 -30 109 -83 126 -137 10 -34 15 -38 45 -38 l33 0 0 -756 0 -756 -34 -47
c-94 -126 -166 -166 -301 -166 -77 0 -99 4 -150 28 -69 32 -118 75 -148 132
-21 38 -22 54 -25 378 l-3 337 29 0 c89 0 216 -64 294 -148 50 -55 55 -58 86
-50 l32 9 0 289 c0 159 -3 291 -7 293 -5 2 -20 7 -35 11 -23 5 -30 1 -50 -32
-38 -61 -89 -112 -138 -137 -44 -22 -138 -45 -187 -45 l-23 0 0 305 c0 178 4
325 11 354 19 92 97 169 197 198 71 20 182 10 248 -22z m-2301 -4 c22 -10 54
-33 70 -50 l30 -32 0 -492 0 -493 -25 -49 c-30 -57 -90 -95 -152 -95 l-38 0 0
621 0 621 38 -7 c20 -3 55 -15 77 -24z m-4337 -77 c183 -38 325 -115 463 -253
85 -85 170 -203 156 -217 -3 -3 -40 2 -83 10 -394 74 -1041 78 -1482 7 -62
-10 -62 -10 -1 81 103 151 281 285 455 342 146 48 347 60 492 30z m7474 -82
c16 -15 18 -39 21 -182 2 -194 -4 -222 -70 -280 l-46 -40 283 0 282 0 -6 -36
c-11 -57 -25 -253 -21 -282 2 -15 6 -62 9 -104 l6 -78 -260 0 c-143 0 -260 -2
-260 -5 0 -2 9 -21 20 -42 36 -71 53 -169 54 -326 l1 -148 -33 -30 c-62 -56
-137 -30 -161 57 -15 54 -15 1364 0 1419 12 43 42 82 74 96 29 12 86 3 107
-19z m-7227 -538 c315 -28 602 -86 842 -168 118 -40 118 -41 23 -70 -134 -42
-295 -75 -297 -62 -1 6 -4 28 -8 49 -7 46 -54 101 -108 129 -114 57 -458 85
-947 74 -168 -4 -368 -11 -445 -17 -293 -21 -429 -75 -471 -184 -9 -25 -17
-45 -18 -45 -9 0 -316 53 -355 61 l-55 11 68 29 c270 115 704 195 1161 213
137 5 443 -5 610 -20z m121 -134 c207 -17 320 -50 353 -103 31 -48 10 -223
-44 -373 -132 -371 -415 -586 -800 -610 -173 -11 -332 19 -480 90 -279 134
-479 433 -493 737 l-4 106 31 36 c57 64 201 100 466 116 197 12 825 12 971 1z
m8647 -38 c16 -28 17 -37 7 -62 -22 -53 -35 -56 -85 -19 -24 19 -45 38 -45 43
0 17 70 77 87 74 9 -2 26 -18 36 -36z m-7683 -527 c-16 -312 -61 -724 -81
-756 -6 -10 -42 20 -136 120 -71 74 -129 137 -131 141 -1 3 23 44 53 90 142
211 227 468 242 730 6 106 7 110 32 118 l26 9 3 -121 c2 -67 -2 -215 -8 -331z
m7605 335 c3 -5 1 -28 -5 -49 l-11 -40 -50 31 c-54 33 -55 36 -29 103 l10 27
40 -32 c22 -17 42 -36 45 -40z m-395 -12 c0 -90 15 -135 50 -153 40 -21 72
-19 104 6 l26 20 0 -109 c0 -114 25 -242 56 -290 19 -29 9 -81 -38 -205 l-30
-79 -45 44 c-102 100 -208 268 -274 437 -43 110 -89 291 -89 354 l0 37 120 0
120 0 0 -62z m208 15 c-14 -52 -18 -53 -18 -5 0 30 4 42 14 42 12 0 12 -7 4
-37z m261 -149 c18 -25 32 -47 30 -49 -2 -2 -22 -6 -43 -11 l-39 -7 6 33 c4
18 7 43 7 56 0 13 1 24 3 24 2 0 18 -21 36 -46z m-154 9 l45 -28 0 -72 c0 -81
-1 -82 -72 -62 -36 10 -38 12 -38 53 0 46 11 136 16 136 2 0 24 -12 49 -27z
m-794 -359 c27 -55 79 -139 114 -185 82 -109 228 -249 333 -318 l82 -54 -57
-81 c-31 -45 -81 -111 -112 -148 l-56 -68 -779 0 -778 0 -77 48 -76 47 93 3
92 3 1 257 c1 227 2 251 13 202 44 -196 135 -331 274 -403 89 -46 159 -61 268
-55 207 11 399 132 495 311 56 105 61 138 66 425 l5 264 24 -74 c14 -40 47
-118 75 -174z m1074 196 l28 -30 -39 -16 c-21 -9 -54 -22 -73 -30 -18 -8 -39
-14 -46 -14 -19 0 -52 99 -38 114 3 3 36 6 73 6 60 0 69 -3 95 -30z m98 -94
c-7 -34 -86 -75 -134 -69 l-36 5 81 43 c45 24 84 44 87 44 3 1 4 -10 2 -23z
m-351 4 c41 -12 42 -13 52 -53 l7 -28 -58 3 -57 3 -12 43 c-12 40 -12 42 9 42
12 0 39 -5 59 -10z m110 -174 c14 -20 3 -41 -24 -44 -30 -4 -73 21 -89 50 -9
17 -6 18 48 12 32 -4 61 -12 65 -18z m-64 -122 c8 -6 -12 -74 -22 -74 -6 0
-25 13 -42 28 -28 24 -31 30 -23 59 l9 32 38 -21 c20 -12 38 -23 40 -24z
m-7063 -404 c25 -63 41 -118 37 -121 -4 -3 -38 -18 -77 -33 -38 -15 -103 -45
-143 -67 -41 -21 -75 -39 -77 -39 -2 0 -5 23 -7 50 l-3 50 88 0 89 0 -6 28
c-24 111 -37 457 -19 475 3 4 22 -46 41 -110 18 -65 53 -170 77 -233z m6985
274 l39 -26 -35 -81 c-19 -45 -34 -84 -34 -87 -1 -3 -18 15 -39 39 l-38 43 30
69 c17 38 32 69 34 69 2 0 21 -12 43 -26z m-10166 -368 l-165 -158 25 -42 c75
-128 46 -225 -73 -241 -95 -13 -149 46 -137 150 l5 50 -60 2 c-101 4 -149 47
-149 136 0 53 28 99 73 120 46 22 71 21 139 -7 l56 -23 158 158 157 157 68
-71 67 -72 -164 -159z m844 286 c9 -6 10 -16 1 -40 -11 -33 -27 -38 -76 -24
l-22 7 20 33 c21 32 50 41 77 24z m637 -22 c8 -16 15 -31 15 -34 0 -7 -79 -30
-84 -25 -2 2 -7 20 -11 41 -6 30 -4 37 12 41 40 10 53 6 68 -23z m1017 -249
c-8 -5 -12 -22 -10 -42 l3 -34 168 -3 168 -2 10 -27 c15 -40 2 -97 -29 -126
-35 -34 -73 -47 -130 -47 -46 0 -47 -1 -47 -32 0 -29 -3 -32 -50 -45 -27 -7
-83 -13 -122 -13 -72 0 -73 0 -73 26 0 15 14 54 31 88 l31 61 -173 167 -174
166 70 71 70 71 135 -135 c98 -98 131 -138 122 -144z m-1513 243 c28 -6 31
-10 31 -44 0 -33 -3 -37 -22 -34 -107 15 -105 14 -88 58 10 27 24 31 79 20z
m357 -29 c3 -20 5 -37 3 -39 -2 -2 -30 -6 -61 -10 l-58 -6 0 39 c0 36 3 40 28
44 74 11 81 9 88 -28z m-176 -15 l0 -40 -45 0 c-44 0 -45 0 -45 33 0 43 5 47
52 47 38 0 38 0 38 -40z m8894 -75 l37 -44 -41 -76 c-23 -41 -45 -75 -48 -75
-4 0 -22 23 -39 50 l-33 49 43 71 c23 38 43 70 43 70 1 0 18 -20 38 -45z
m-9314 10 c25 -66 24 -67 -42 -118 l-63 -49 -12 30 c-25 62 -21 76 32 121 58
48 72 50 85 16z m767 -2 c2 -6 -4 -13 -14 -16 -10 -2 -34 -12 -54 -21 -34 -14
-38 -14 -53 3 -16 18 -14 19 41 34 63 16 75 16 80 0z m-537 -34 c0 -17 -22
-99 -27 -99 -19 0 -93 24 -93 30 0 11 92 79 108 80 6 0 12 -5 12 -11z m377
-90 c-7 -3 -26 -9 -44 -12 -31 -6 -31 -5 -43 45 -10 41 -10 52 1 59 10 6 26
-5 56 -39 26 -30 37 -49 30 -53z m-1108 77 c7 -8 42 -34 78 -57 l66 -43 -89
-83 -89 -83 -135 0 -135 0 140 140 c77 77 143 140 146 140 4 0 12 -6 18 -14z
m940 -30 c19 -78 21 -76 -70 -76 l-81 0 7 46 c11 74 11 74 75 74 l58 0 11 -44z
m1081 -180 l54 -56 -175 0 -175 0 -73 61 c-40 34 -71 63 -69 65 2 2 51 34 109
72 l104 70 85 -78 c47 -43 110 -104 140 -134z m-636 147 c28 -26 52 -50 54
-54 1 -3 -23 -16 -54 -28 l-58 -22 -48 48 c-26 26 -48 50 -48 54 0 5 81 44 99
48 2 1 27 -20 55 -46z m-1090 -139 c-16 -13 -46 -38 -66 -54 l-37 -31 -10 38
c-17 61 -14 69 52 127 l62 56 14 -56 14 -56 -29 -24z m9679 97 l28 -11 -40
-73 -40 -72 -67 -3 -67 -3 17 25 c9 14 32 55 52 92 40 71 44 73 117 45z
m-9318 -46 c133 -37 326 -39 449 -6 l80 21 33 -32 33 -32 -28 -29 c-50 -54
-164 -127 -230 -147 -163 -50 -313 -5 -478 144 l-66 60 33 28 c38 31 31 32
174 -7z m2775 -5 c0 -28 -3 -30 -35 -30 -32 0 -35 2 -35 30 0 28 3 30 35 30
32 0 35 -2 35 -30z m172 22 c16 -6 16 -10 -4 -40 -19 -31 -24 -33 -57 -27 -20
4 -37 8 -37 8 -1 1 1 17 3 35 5 29 8 32 42 31 20 0 44 -3 53 -7z m1854 -23
c-3 -17 -6 -38 -6 -45 0 -7 -18 -23 -40 -34 l-40 -20 0 47 c0 57 7 69 40 76
52 9 53 9 46 -24z m210 11 l26 -10 -32 -40 c-35 -45 -34 -44 -94 -29 -40 10
-42 12 -38 42 7 59 8 60 63 53 27 -4 61 -11 75 -16z m4013 -30 c17 -28 31 -55
31 -61 0 -14 -88 -139 -98 -139 -4 0 -21 27 -39 59 l-31 59 50 66 c28 36 52
66 54 66 1 0 16 -23 33 -50z m-6389 16 c0 -30 -3 -32 -57 -41 -43 -7 -43 -7
-43 23 0 32 10 38 73 41 22 1 27 -3 27 -23z m459 -7 c17 -6 31 -15 31 -19 0
-5 -16 -21 -35 -36 -25 -19 -42 -25 -60 -20 -30 8 -31 12 -5 54 22 36 24 36
69 21z m3536 -26 c-14 -78 -65 -83 -65 -7 0 44 0 44 36 44 l36 0 -7 -37z
m-4172 -34 c-5 -5 -27 -12 -47 -16 -37 -6 -38 -5 -34 22 2 22 11 31 38 40 33
11 35 11 44 -12 5 -15 4 -29 -1 -34z m4367 53 c0 -5 -10 -18 -22 -29 -28 -25
-103 -22 -94 4 3 8 6 19 6 24 0 5 25 9 55 9 30 0 55 -4 55 -8z m-5880 -92 c0
-3 -21 -18 -46 -33 l-46 -28 -54 46 c-30 26 -54 50 -54 54 0 5 24 17 52 28
l53 20 47 -41 c27 -23 48 -43 48 -46z m3690 73 c0 -10 3 -28 6 -40 6 -22 4
-23 -72 -23 -87 0 -87 3 -4 49 64 36 70 37 70 14z m1850 -18 l0 -35 -67 0 -68
1 65 34 c36 19 66 34 68 35 1 0 2 -16 2 -35z m540 -26 c0 -10 -55 -49 -70 -49
-9 0 -68 26 -78 36 -2 1 9 18 24 38 l28 35 48 -26 c26 -14 48 -30 48 -34z
m-1844 4 c29 -21 54 -40 54 -43 0 -3 -22 -20 -50 -39 l-49 -33 -51 37 -51 38
37 38 c21 22 42 39 47 39 5 0 33 -17 63 -37z m-2876 2 c0 -10 -10 -15 -32 -14
l-33 1 30 13 c17 8 31 14 33 15 1 0 2 -7 2 -15z m-2545 -15 c18 -20 17 -20
-31 -20 l-49 1 24 19 c29 25 34 25 56 0z m3495 2 l22 -18 -41 -27 c-48 -32
-50 -32 -80 -11 l-23 16 34 29 c39 33 58 36 88 11z m-3791 -62 l11 -45 -53
-47 c-28 -26 -54 -47 -57 -48 -3 0 -13 19 -23 42 l-17 42 57 58 c31 32 60 54
64 50 3 -4 11 -27 18 -52z m7680 -2 c20 -12 38 -23 40 -25 6 -4 -51 -63 -61
-63 -13 0 -88 52 -88 60 0 7 59 49 69 50 2 0 20 -10 40 -22z m-3736 -50 l38
-33 -35 -28 -36 -27 -55 36 c-30 20 -55 40 -55 44 0 4 17 19 38 32 41 28 46
27 105 -24z m-2329 -6 l49 -36 -29 -23 c-48 -38 -61 -38 -120 2 -30 21 -54 40
-54 44 0 12 84 60 95 54 5 -4 32 -22 59 -41z m7783 -21 l32 -59 -71 -56 c-38
-31 -74 -56 -78 -56 -5 0 -17 25 -26 55 l-17 54 59 60 c32 33 61 60 64 60 3 1
19 -26 37 -58z m-3514 1 l47 -47 -35 -28 c-19 -15 -39 -27 -46 -27 -13 0 -122
81 -116 86 15 16 84 63 92 63 6 1 32 -20 58 -47z m1968 -36 l51 -34 -45 -31
c-25 -17 -49 -31 -52 -31 -4 0 -25 14 -47 31 l-39 32 32 33 c18 19 37 34 41
34 5 0 31 -15 59 -34z m-8026 -52 l17 -46 -38 -39 -38 -39 -28 27 c-15 15 -28
30 -28 34 0 6 89 109 95 109 1 0 10 -21 20 -46z m4273 17 c20 -10 61 -26 89
-35 l53 -17 -28 -35 c-20 -25 -32 -32 -47 -28 -38 11 -175 77 -175 85 0 8 51
48 63 49 4 0 24 -8 45 -19z m-2301 -13 c29 -12 53 -24 53 -28 0 -3 -15 -21
-34 -39 -32 -31 -36 -32 -68 -22 -18 6 -48 20 -67 32 l-34 21 44 29 c24 16 46
29 49 29 2 0 28 -10 57 -22z m4258 -32 c28 -10 56 -20 63 -22 9 -3 7 -14 -10
-44 -13 -22 -27 -40 -31 -40 -12 0 -108 41 -134 58 l-23 14 37 29 c20 16 39
28 42 27 3 -2 29 -11 56 -22z m-6420 4 c-3 -5 -13 -10 -21 -10 -8 0 -14 5 -14
10 0 6 9 10 21 10 11 0 17 -4 14 -10z m9405 2 c0 -13 -152 -91 -229 -117 -150
-51 -285 -55 -421 -13 -70 22 -254 111 -265 128 -4 7 141 10 454 10 254 0 461
-4 461 -8z m-4474 -49 c-3 -25 -7 -48 -9 -49 -1 -2 -22 -6 -45 -10 l-42 -7 0
45 c0 42 2 46 33 56 65 20 70 17 63 -35z m203 43 c-2 -2 -32 -18 -66 -35 l-63
-31 0 35 0 35 67 0 c36 0 64 -2 62 -4z m1721 -30 c0 -30 -4 -36 -41 -50 -22
-9 -45 -14 -50 -11 -10 7 -12 78 -2 88 3 4 26 7 50 7 42 0 43 -1 43 -34z m120
29 c0 -2 -9 -9 -20 -15 -16 -9 -20 -8 -20 5 0 8 9 15 20 15 11 0 20 -2 20 -5z
m1469 -62 c3 -2 -15 -23 -39 -48 -48 -49 -44 -49 -124 8 l-48 35 52 35 52 35
52 -31 c28 -17 53 -32 55 -34z m-5619 46 c-33 -22 -110 -59 -125 -59 -11 0
-15 10 -15 35 l0 35 78 0 c56 0 73 -3 62 -11z m6733 -41 c19 -60 24 -54 -95
-118 l-78 -41 0 58 1 58 67 46 c37 26 72 47 78 48 5 1 18 -22 27 -51z m-7156
22 c9 0 6 -14 -9 -45 -25 -50 -33 -53 -118 -33 l-51 12 41 41 c40 40 43 42 83
34 23 -4 48 -8 54 -9z m208 -20 c4 -21 4 -44 1 -49 -7 -10 -144 -36 -152 -28
-3 2 5 25 17 51 20 39 28 47 63 55 63 14 64 14 71 -29z m2155 -16 l0 -45 -57
7 c-32 3 -61 8 -65 11 -5 2 4 20 20 39 22 28 34 34 65 34 l37 0 0 -46z m1920
1 c0 -52 -11 -58 -103 -53 l-57 3 31 48 c30 45 33 47 80 47 l49 0 0 -45z
m-6632 -55 c33 -38 42 -57 40 -78 -4 -27 -7 -23 -22 21 -5 15 -12 17 -36 12
-30 -6 -30 -6 -30 34 0 38 -2 41 -27 42 l-28 1 25 8 c14 4 27 8 30 9 3 1 24
-22 48 -49z m8522 -5 c28 -14 50 -29 50 -33 0 -13 -61 -92 -71 -92 -5 0 -37
14 -71 31 l-61 31 44 44 c24 24 47 44 51 44 5 0 31 -11 58 -25z m730 -70 l0
-54 -96 -31 c-53 -17 -98 -29 -100 -27 -2 2 4 27 14 57 l17 53 75 27 c41 15
78 28 83 29 4 0 7 -24 7 -54z m-488 -48 c-9 -15 -26 -39 -37 -53 l-21 -26 -62
17 c-34 10 -62 19 -62 21 0 2 16 26 35 52 l34 48 65 -15 64 -16 -16 -28z m222
-22 c-7 -25 -16 -50 -19 -55 -7 -11 -165 -14 -165 -4 0 4 16 28 36 55 l36 49
63 0 63 0 -14 -45z"/>
<path d="M1260 2061 c-81 -26 -157 -88 -192 -156 -13 -25 -23 -67 -26 -111 -6
-93 15 -158 73 -222 119 -132 326 -130 444 4 161 184 38 474 -207 489 -37 3
-78 1 -92 -4z"/>
<path d="M2093 2056 c-211 -69 -277 -340 -120 -494 62 -60 127 -87 213 -86
117 0 208 57 266 167 19 34 23 58 23 127 0 93 -16 136 -76 204 -66 76 -209
114 -306 82z"/>
<path d="M1714 1506 c-67 -29 -92 -102 -59 -166 21 -40 53 -60 98 -60 53 0 96
25 113 65 19 46 18 74 -6 112 -31 52 -93 72 -146 49z"/>
<path d="M7159 3410 c-20 -10 -50 -36 -67 -57 -18 -21 -38 -45 -45 -54 -8 -9
-56 -26 -108 -39 -52 -12 -100 -26 -107 -29 -7 -4 22 -15 64 -25 145 -34 139
-31 152 -81 12 -47 70 -120 103 -130 14 -5 19 -16 19 -40 0 -29 -4 -33 -32
-39 -96 -18 -219 -106 -279 -199 -124 -191 -99 -438 60 -593 l31 -30 -45 -62
c-25 -34 -45 -64 -45 -67 0 -3 16 -5 35 -5 19 0 35 -3 35 -7 0 -5 -16 -33 -35
-63 l-34 -55 75 -3 c54 -2 74 -6 71 -15 -2 -7 -24 -79 -47 -162 -23 -82 -45
-156 -47 -162 -4 -10 13 -13 65 -13 l71 0 5 -32 c6 -39 26 -385 26 -445 0 -41
0 -41 -42 -48 -151 -25 -274 -175 -144 -175 46 0 145 33 251 84 l111 53 44
-39 c62 -53 173 -108 221 -108 84 0 63 73 -41 138 l-59 37 0 50 c-1 35 25 453
29 482 0 0 27 4 60 8 33 4 60 10 60 13 0 4 -15 80 -34 170 l-34 162 64 0 c35
0 64 2 64 5 0 3 -16 31 -35 61 -19 30 -35 57 -35 59 0 3 16 5 35 5 19 0 35 3
35 7 0 3 -18 30 -40 59 l-39 52 33 26 c50 37 113 139 137 218 17 55 21 88 17
161 -3 81 -8 102 -41 170 -60 127 -155 211 -292 257 -42 14 -51 21 -53 44 -3
22 5 35 38 63 40 35 80 98 80 127 0 20 16 27 139 61 l105 30 -75 17 c-41 9
-95 20 -121 24 -36 5 -51 13 -64 33 -28 44 -67 82 -106 102 -49 25 -140 25
-189 -1z m305 -845 c15 -19 34 -52 43 -73 20 -47 19 -146 -1 -193 -17 -40 -63
-99 -77 -99 -5 0 -9 86 -9 200 0 110 4 200 9 200 5 0 21 -16 35 -35z m-384
-171 c0 -173 -1 -185 -17 -173 -51 43 -79 179 -52 260 11 32 55 99 65 99 2 0
4 -84 4 -186z"/>
</g>
</svg>
